<?xml version="1.0" encoding="utf-8"?>
<!-- Generator: Adobe Illustrator 25.2.3, SVG Export Plug-In . SVG Version: 6.00 Build 0)  -->
<svg version="1.1" id="Layer_1" xmlns="http://www.w3.org/2000/svg" xmlns:xlink="http://www.w3.org/1999/xlink" x="0px" y="0px"
	 viewBox="0 0 685.3 467" style="enable-background:new 0 0 685.3 467;" xml:space="preserve">
<style type="text/css">
	.st0{fill:#080032;}
	.st1{fill:#0580B7;}
	.st2{fill:url(#SVGID_1_);}
</style>
<g>
	<path class="st0" d="M404.7,430.9c0,10.6-4.4,19.1-17.2,19.2c-12.7,0.1-16.4-8.6-16.4-19.8v-40.8h-18v45.4c0,13.1,4.7,32,29.4,32.1
		c13.5,0.1,20.2-6.5,23.4-12.4c0,3.5,0,6.7,0,10h16.8v-75.1h-18L404.7,430.9L404.7,430.9z M346.3,413.9c0-28.7-22.6-52.5-53.3-52.5
		c-28.2,0-53.2,20.9-53.2,53.3v0.1c0,27.1,21.9,51.6,53.1,51.6c11.4,0,21.7-3.3,30.1-8.8l6.9,6.9h27.5l-20.6-20.6
		C342.9,435.4,346.3,425,346.3,413.9z M322.4,429.4l-25.2-25.2l-13.9,13.6l26.2,26.2c-4.6,2.7-10,4.3-16.1,4.3
		c-19.8,0-33.1-16-33.1-34.6v-0.1c0-17.7,12.7-34.4,32.9-34.4c20.7,0,32.8,17.8,32.8,34.7C325.9,419.2,324.7,424.5,322.4,429.4z
		 M541.4,418.6c-7.1-2.1-12.6-4.6-12.7-9.4c-0.1-3.7,2.8-7.6,8.8-7.6c7,0,9.1,4.2,9.2,8.2h17.7c-1.4-18.1-16.5-22.6-26.6-22.7
		c-14.5,0-27,9.2-27,24c0.1,10.8,8.3,16.4,18.4,19.6c13.8,4.9,19.4,6.6,19.5,13c0.1,5.1-4.7,8.8-10.3,8.8c-3.4,0-10.4-1.7-11.1-9.8
		h-17.9c1.3,18.2,17.1,24.2,28.7,24.2c15.7,0,28.7-9.9,28.5-25.4C566.4,425.4,553.5,421.9,541.4,418.6z M468.2,387.1
		c-22.8,0-39.4,18.8-39.4,40.1c0,21,16.6,39.7,39.7,39.7c7.7,0,15.1-2.2,21.4-6.5c6.4-4.2,11.7-10.6,15.3-18.9h-18.5
		c-3.5,6.1-9.3,10.1-18.1,10.1c-10.2,0-21-6.6-21.7-18.6h60.5c1.5-13.1-1.8-25-11-34.5C489.2,391.3,479.4,387.1,468.2,387.1z
		 M447,419.2c0.7-7.3,8-16.9,21.3-16.9c13.1-0.2,20.6,9.8,21.3,16.9H447z M596,389.4v-26.2h-18v26.2h-12.4v13.8H578v61.3h18v-61.3
		h12.9v-13.8H596z"/>
	<path class="st1" d="M163.7,389.4h16.9c0,3.2,0,6.4,0,10c3.2-5.9,9.9-12.5,23.3-12.4c24.6,0.1,29.3,19,29.3,32.1v45.4h-18v-40.9
		c0-11.2-3.7-19.8-16.3-19.8c-12.7,0.1-17.1,8.6-17.1,19.2v41.4h-18L163.7,389.4L163.7,389.4z M106.3,466.5
		c-32.9,0-52.6-26.7-52.6-52.4c0-29.7,23-53,52.4-53c14.1,0,27.2,5.2,36.8,14.7c11.6,11.6,16.8,26.8,15,44.1l-0.1,1h-1h-82
		c1.4,17.8,17.1,27.4,31.4,27.4c12.3,0,21.9-5.6,27.3-15.8l0.3-0.6h0.7h19.3h1.7l-0.7,1.6c-4.5,10.4-11.5,19-20.2,24.6
		C126.5,463.7,116.7,466.5,106.3,466.5L106.3,466.5z M75.1,404.1h62.1c-1.5-12.2-13.7-24.8-30.3-24.8h-0.7
		C88.5,379.3,76.8,391.7,75.1,404.1L75.1,404.1z"/>
	
		<linearGradient id="SVGID_1_" gradientUnits="userSpaceOnUse" x1="160.225" y1="732.175" x2="480.575" y2="1052.5249" gradientTransform="matrix(1 0 0 1 0 -722.2)">
		<stop  offset="0.2" style="stop-color:#0580B7"/>
		<stop  offset="0.8" style="stop-color:#080032"/>
	</linearGradient>
	<path class="st2" d="M170.1,0.1L170.1,0.1c24.1,0,46.9,4.8,67.6,13.5l0,0c20.6,8.7,39,21.2,54.7,36.2l0,0
		c31.4,30.1,52.3,70.2,61.3,113.5l0,0c4.7,23,14.3,44.6,27.5,62l0,0c13.1,17.5,29.6,30.8,48.3,38.7l0,0c12.5,5.2,26.1,8.2,41.2,8.2
		l0,0v68l0,0h-0.1l0,0c-24,0-46.9-4.8-67.5-13.5l0,0c-20.6-8.7-39-21.2-54.7-36.2l0,0c-31.4-30.1-52.3-70.2-61.3-113.5l0,0
		c-4.7-23-14.3-44.6-27.5-62l0,0c-13.1-17.5-29.6-30.8-48.3-38.7l0,0c-12.5-5.3-26.1-8.2-41.2-8.2l0,0V0.1L170.1,0.1z"/>
	<path d="M340.2,170.2"/>
	<path class="st1" d="M242.2,242.3c-18.5,18.5-44,29.9-72.1,29.9c-45.5,0-84.1-29.9-97.3-71.2h205.6c-2.1-6.9-3.8-14-5.3-21.2
		c-3-14.7-8.2-28.6-15.1-41.2H73c13.3-40.9,51.3-71,97.4-70.5v-68C75.7-0.4,0,76.1,0,170.1C0,264,76.1,340.2,170.1,340.2
		c47,0,89.5-19,120.3-49.8L242.2,242.3z"/>
	<path class="st0" d="M685.3,340.4L611,266.1c18.7-27.3,29.6-60.3,29.6-95.9c0-93.9-76.1-170.1-170.1-170.1
		c-57.9,0-109.1,29-139.8,73.2c17.6,25.5,30.1,55,36.7,87.2c0.3,1.7,0.7,3.3,1.1,4.9c2.5-54,47.3-97.2,101.9-97.2
		c56.3,0,102,45.8,102,102c0,16.7-4,32.4-11.1,46.3l-77.9-77.9l-44.7,44.7l77.9,77.9c-13.9,7.1-29.4,11-46.1,11v68
		c35.5,0,68.3-10.8,95.6-29.4l29.6,29.6L685.3,340.4L685.3,340.4z"/>
</g>
</svg>
